HIERARCHY
ROOT hip
{
	OFFSET 0.000000 0.000000 0.000000 
	CHANNELS 6 Xposition Yposition Zposition Xrotation Zrotation Yrotation
	JOINT abdomen
	{
		OFFSET 0.000000 3.402643 0.000000 
		CHANNELS 3 Xrotation Zrotation Yrotation
		JOINT chest
		{
			OFFSET 0.000000 8.438565 -0.680529 
			CHANNELS 3 Xrotation Zrotation Yrotation
			JOINT neck
			{
				OFFSET 0.000000 10.207942 -0.272212 
				CHANNELS 3 Xrotation Zrotation Yrotation
				JOINT head
				{
					OFFSET 0.000000 3.130431 0.000000 
					CHANNELS 3 Xrotation Zrotation Yrotation
					End Site
					{
						OFFSET 0.000000 3.130435 0.000000 
					}
				}
			}
			JOINT lCollar
			{
				OFFSET 3.470700 6.669187 -0.816635 
				CHANNELS 3 Yrotation Zrotation Xrotation
				JOINT lShldr
				{
					OFFSET 3.198488 0.000000 0.000000 
					CHANNELS 3 Zrotation Yrotation Xrotation
					JOINT lForeArm
					{
						OFFSET 10.139888 0.000000 0.000000 
						CHANNELS 3 Yrotation Zrotation Xrotation
						JOINT lHand
						{
							OFFSET 8.370511 0.000000 0.000000 
							CHANNELS 3 Zrotation Yrotation Xrotation
							End Site
							{
								OFFSET 4.083176 0.000000 0.000000 
							}
						}
					}
				}
			}
			JOINT rCollar
			{
				OFFSET -3.470700 6.669187 -0.816635 
				CHANNELS 3 Yrotation Zrotation Xrotation
				JOINT rShldr
				{
					OFFSET -3.198488 0.000000 0.000000 
					CHANNELS 3 Zrotation Yrotation Xrotation
					JOINT rForeArm
					{
						OFFSET -10.139888 0.000000 0.000000 
						CHANNELS 3 Yrotation Zrotation Xrotation
						JOINT rHand
						{
							OFFSET -8.370511 0.000000 0.000000 
							CHANNELS 3 Zrotation Yrotation Xrotation
							End Site
							{
								OFFSET -4.083176 0.000000 0.000000 
							}
						}
					}
				}
			}
		}
	}
	JOINT lThigh
	{
		OFFSET 5.308129 -1.633274 1.361059 
		CHANNELS 3 Xrotation Zrotation Yrotation
		JOINT lShin
		{
			OFFSET -2.041588 -20.007561 0.000000 
			CHANNELS 3 Xrotation Zrotation Yrotation
			JOINT lFoot
			{
				OFFSET 0.000000 -19.190928 -1.224953 
				CHANNELS 3 Xrotation Yrotation Zrotation
				End Site
				{
					OFFSET 0.000000 -2.449906 4.627600 
				}
			}
		}
	}
	JOINT rThigh
	{
		OFFSET -5.308129 -1.633274 1.361059 
		CHANNELS 3 Xrotation Zrotation Yrotation
		JOINT rShin
		{
			OFFSET 2.041588 -20.007561 0.000000 
			CHANNELS 3 Xrotation Zrotation Yrotation
			JOINT rFoot
			{
				OFFSET 0.000000 -19.190928 -1.224953 
				CHANNELS 3 Xrotation Yrotation Zrotation
				End Site
				{
					OFFSET 0.000000 -2.449906 4.627600 
				}
			}
		}
	}
}
MOTION
Frames: 9
Frame Time: 0.033333
-2.811797 53.074650 0.249761 -177.363281 177.343750 -1.806188 35.573753 -11.734821 -10.830650 -19.853518 -5.224610 -5.869141 51.553619 8.070152 2.616707 -87.763672 -7.841796 10.027966 2.000000 -2.000000 0.000000 -90.878906 30.781248 -31.830938 -53.280025 -1.606042 -1.926995 31.870493 71.471840 32.170059 -2.000000 2.000000 0.000000 88.173828 -14.365235 2.771015 85.721413 0.251337 -3.023394 5.386284 -42.079685 5.753596 -2.538213 9.041370 0.008602 23.258953 -5.224798 -2.724757 -0.410316 1.242147 -16.471552 -6.582013 -11.005444 -9.391162 23.430761 4.969178 2.410069 11.846006 -2.121099 17.375631 
-2.524153 53.303978 -0.169517 -178.261719 177.519531 0.781250 34.766560 -11.808599 -11.417871 -19.648438 -7.656250 -7.148437 51.553619 8.070152 2.616707 -87.763672 -5.957031 11.707972 2.000000 -2.000000 0.000000 -95.087891 33.320313 -39.013672 -53.477303 -1.425741 -2.358508 31.777025 74.282913 32.868649 -2.000000 2.000000 0.000000 88.730469 -15.429688 6.376953 92.409515 -0.151205 -2.997788 5.231974 -41.092262 7.022212 -3.376260 9.241798 -1.655731 22.379280 -5.263551 -2.626761 1.912805 0.539970 -15.822268 -5.135245 -10.288091 -7.746214 20.792496 5.251781 2.196762 12.103663 -3.163368 18.599562 
-2.302309 53.541222 -0.707596 -179.316406 177.509766 3.710938 33.469086 -12.243977 -10.700360 -19.667971 -6.972657 -6.162110 51.553619 8.070152 2.616707 -88.261719 -8.496094 12.207030 2.000000 -2.000000 0.000000 -97.822266 35.732422 -42.201332 -54.368279 -1.214294 -2.087024 31.642887 74.682159 33.187939 -2.000000 2.000000 0.000000 87.070313 -17.138672 5.309624 97.865479 -0.254906 -2.896227 3.438526 -37.517452 8.041652 -4.019509 9.309077 -4.673470 20.781221 -5.137030 -2.429051 3.663132 0.594513 -15.825669 -3.806624 -9.816138 -7.504414 18.323547 5.349469 1.784997 13.020761 -3.455405 18.839851 
-2.158037 53.731010 -1.417001 179.638687 177.509766 6.484800 32.103222 -13.026988 -9.364451 -19.335938 -4.189453 -3.583984 51.553619 8.070152 2.616707 -88.789063 -13.525389 11.826172 2.000000 -2.000000 0.000000 -99.638672 38.222656 -42.952938 -55.949749 -1.242404 -2.065826 33.465740 73.784851 34.743404 -2.000000 2.000000 0.000000 83.847656 -20.068359 2.070199 103.167389 -0.519031 -3.234093 0.950235 -32.567600 8.591075 -4.304580 9.381625 -7.875832 19.217110 -5.390423 -2.490334 5.375020 1.216491 -16.163759 -1.748171 -9.621474 -9.412365 15.173121 5.458773 1.633323 11.584780 -3.863694 19.463650 
-2.108939 53.810089 -2.159969 -1.064453 2.451172 -171.083557 30.876625 -13.637620 -7.905705 -18.974611 -1.083984 -0.761719 51.553619 8.070152 2.616707 -89.580078 -19.355467 11.598326 2.000000 -2.000000 0.000000 -100.615234 39.902348 -42.763672 -57.885059 -1.138574 -2.130556 35.051506 71.935448 36.097248 -2.000000 2.000000 0.000000 81.181641 -22.949219 -1.644433 107.233276 -0.960397 -3.044592 -1.586558 -27.966312 8.839417 -3.981222 9.116622 -11.349319 17.641766 -5.194206 -2.103777 4.989071 1.833131 -16.617250 1.190264 -9.000284 -12.946891 11.652844 5.550605 1.103707 9.736574 -3.047398 18.363256 
-2.095213 53.738918 -2.667745 -1.240234 2.451172 -168.983963 30.527975 -13.712232 -6.679437 -18.593750 1.162109 1.240234 51.553619 8.070152 2.616707 -90.976563 -23.564449 11.880860 2.000000 -2.000000 0.000000 -101.669922 40.791016 -43.440884 -59.473251 -1.337432 -2.353866 35.772034 69.849045 36.338676 -2.000000 2.000000 0.000000 79.199219 -24.121092 -4.711020 110.058052 -0.916327 -3.130047 -1.863989 -25.036858 8.322536 -3.602830 8.964219 -14.339139 16.377880 -5.234587 -2.167709 3.916904 3.211619 -17.571157 3.872841 -8.344671 -16.788658 8.677531 5.619224 0.800406 7.121622 -1.642809 16.788916 
-2.037745 53.612392 -2.859645 -0.908203 2.089844 -167.402344 30.757849 -13.516047 -5.975338 -18.408203 2.031250 2.470703 51.553619 8.070152 2.616707 -93.408203 -25.429684 13.085938 2.000000 -2.000000 0.000000 -101.718750 39.863281 -44.075771 -60.359196 -1.165455 -2.256109 35.806572 68.416153 35.903652 -2.000000 2.000000 0.000000 78.251953 -23.388672 -6.664032 110.771042 -1.266986 -2.818085 -0.166655 -24.382412 7.385045 -3.346418 8.969897 -17.327812 15.497482 -5.663691 -1.967446 2.319054 4.324687 -18.112183 5.093697 -8.228498 -19.703390 7.616438 5.474815 0.681094 3.818105 -0.642086 15.452367 
-1.881921 53.398869 -2.793019 -0.537109 1.748047 -165.781250 31.314552 -13.390656 -5.112397 -18.046875 2.714844 3.496556 51.553619 8.070152 2.616707 -95.527336 -26.054684 13.784776 2.000000 -2.000000 0.000000 -101.787109 37.158203 -44.306644 -60.007645 -1.155706 -2.256677 34.324100 67.457092 34.583168 -2.000000 2.000000 0.000000 77.353516 -21.904297 -8.538800 109.885391 -1.104555 -3.258081 2.439215 -25.081512 6.466187 -3.376125 8.911901 -19.439926 15.323736 -5.654677 -1.951804 0.308072 5.154957 -18.664772 5.023024 -8.216578 -21.459171 9.535396 5.247208 0.851236 2.589797 -0.479069 15.708492 
-1.607383 53.264439 -2.434082 0.166016 1.406250 -164.199219 32.050545 -13.013910 -4.304522 -17.685547 3.212891 4.687500 51.553619 8.070152 2.616707 -96.250000 -26.523436 14.101564 2.000000 -2.000000 0.000000 -101.894531 33.203125 -43.881374 -59.130039 -1.187791 -2.303698 33.093163 66.578674 33.291962 -2.000000 2.000000 0.000000 76.835938 -19.853516 -10.501365 107.757416 -1.151839 -2.948105 5.712220 -25.880201 5.078238 -3.921461 8.813281 -20.880398 16.033833 -5.643884 -2.012571 -0.238467 5.058357 -18.845314 4.037336 -9.036654 -22.335169 13.069852 5.335543 1.235527 1.243932 -0.981019 16.162361 
